nColumns=19
nRows=89
DataType=double
version=3
OpenSimVersion=4.1
endheader
time	ground_force_calcn_r_vx	ground_force_calcn_r_vy	ground_force_calcn_r_vz	ground_force_calcn_r_px	ground_force_calcn_r_py	ground_force_calcn_r_pz	ground_force_calcn_r_mx	ground_force_calcn_r_my	ground_force_calcn_r_mz	ground_force_calcn_l_vx	ground_force_calcn_l_vy	ground_force_calcn_l_vz	ground_force_calcn_l_px	ground_force_calcn_l_py	ground_force_calcn_l_pz	ground_force_calcn_l_mx	ground_force_calcn_l_my	ground_force_calcn_l_mz
0	0	0	0	0	0	0	0	0	0	0	0	0	0	0	0	0	0	0
0.005	0	0	0	0	0	0	0	0	0	0	0	0	0	0	0	0	0	0
0.01	0	0	0	0	0	0	0	0	0	0	0	0	0	0	0	0	0	0
0.015	0	0	0	0	0	0	0	0	0	0	0	0	0	0	0	0	0	0
0.02	0	0	0	0	0	0	0	0	0	0	0	0	0	0	0	0	0	0
0.025	0	0	0	0	0	0	0	0	0	0	0	0	0	0	0	0	0	0
0.03	0	0	0	0	0	0	0	0	0	0	0	0	0	0	0	0	0	0
0.035	0	0	0	0	0	0	0	0	0	0	0	0	0	0	0	0	0	0
0.04	0	0	0	0	0	0	0	0	0	0	0	0	0	0	0	0	0	0
0.045	0	0	0	0	0	0	0	0	0	0	0	0	0	0	0	0	0	0
0.05	0	0	0	0	0	0	0	0	0	0	0	0	0	0	0	0	0	0
0.055	0	0	0	0	0	0	0	0	0	0	0	0	0	0	0	0	0	0
0.06	0	0	0	0	0	0	0	0	0	0	0	0	0	0	0	0	0	0
0.065	0	0	0	0	0	0	0	0	0	0	0	0	0	0	0	0	0	0
0.07	0	0	0	0	0	0	0	0	0	0	0	0	0	0	0	0	0	0
0.075	0	0	0	0	0	0	0	0	0	0	0	0	0	0	0	0	0	0
0.08	0	0	0	0	0	0	0	0	0	0	0	0	0	0	0	0	0	0
0.085	0	0	0	0	0	0	0	0	0	0	0	0	0	0	0	0	0	0
0.09	0	0	0	0	0	0	0	0	0	0	0	0	0	0	0	0	0	0
0.095	0	0	0	0	0	0	0	0	0	0	0	0	0	0	0	0	0	0
0.1	0	0	0	0	0	0	0	0	0	0	0	0	0	0	0	0	0	0
0.105	0	0	0	0	0	0	0	0	0	0	0	0	0	0	0	0	0	0
0.11	0	0	0	0	0	0	0	0	0	0	0	0	0	0	0	0	0	0
0.115	0	0	0	0	0	0	0	0	0	0	0	0	0	0	0	0	0	0
0.12	0	0	0	0	0	0	0	0	0	-28.6174	17.7136	-17.5755	1.11958	0	-0.0790374	5.04464	-3.12253	3.0982
0.125	0	0	0	0	0	0	0	0	0	-70.0171	124.346	-0.604297	1.23812	0	-0.337296	4.85255	-8.61781	0.0418809
0.13	0	0	0	0	0	0	0	0	0	-120.997	306.998	35.7578	1.1442	0	-0.392113	2.3791	-6.03637	-0.703089
0.135	0	0	0	0	0	0	0	0	0	-175.055	562.109	94.9784	1.11539	0	-0.384143	-0.345326	1.10885	0.187361
0.14	0	0	0	0	0	0	0	0	0	-216.727	850.867	168.8	1.09537	0	-0.373655	-2.27745	8.94126	1.77382
0.145	0	0	0	0	0	0	0	0	0	-231.002	1134.34	229.211	1.07892	0	-0.362998	-1.94678	9.5597	1.93169
0.15	0	0	0	0	0	0	0	0	0	-228.485	1400.77	242.605	1.05915	0	-0.353774	0.613271	-3.75978	-0.651171
0.155	0	0	0	0	0	0	0	0	0	-237.124	1644.93	192.488	1.03367	0	-0.347108	3.41434	-23.6854	-2.77163
0.16	0	0	0	0	0	0	0	0	0	-264.064	1851.54	88.9157	1.01273	0	-0.343479	4.47266	-31.3611	-1.50604
0.165	0	0	0	0	0	0	0	0	0	-307.522	2016.15	-31.3638	1.00331	0	-0.342055	3.15489	-20.6838	0.321764
0.17	0	0	0	0	0	0	0	0	0	-369.87	2153.52	-125.123	1.00049	0	-0.341358	0.38121	-2.21955	0.128959
0.175	0	0	0	0	0	0	0	0	0	-432.136	2274.87	-164.424	0.997232	0	-0.339938	-1.77949	9.36769	-0.677079
0.18	0	0	0	0	0	0	0	0	0	-463.636	2385.54	-144.682	0.98718	0	-0.337446	-1.26729	6.52057	-0.395469
0.185	0	0	0	0	0	0	0	0	0	-450.229	2484.22	-77.4452	0.965249	0	-0.33482	0.936142	-5.16534	0.161029
0.19	0	0	0	0	0	0	0	0	0	-388.993	2559.21	6.28763	0.933695	0	-0.333968	2.05522	-13.5215	-0.0332204
0.195	0	0	0	0	0	0	0	0	0	-294.221	2603.25	73.1306	0.898078	0	-0.335079	1.43462	-12.6935	-0.356585
0.2	0	0	0	0	0	0	0	0	0	-195.076	2622.97	103.386	0.862891	0	-0.336856	0.525983	-7.07234	-0.278759
0.205	0	0	0	0	0	0	0	0	0	-107.304	2624.51	100.867	0.831653	0	-0.337835	0.121937	-2.98242	-0.114622
0.21	0	0	0	0	0	0	0	0	0	-27.5689	2608.09	82.5378	0.804612	0	-0.337681	0.0277344	-2.62375	-0.0830332
0.215	0	0	0	0	0	0	0	0	0	51.3862	2569.95	63.5319	0.778761	0	-0.336681	-0.0900699	-4.50462	-0.111359
0.22	0	0	0	0	0	0	0	0	0	133.696	2507.66	46.458	0.752629	0	-0.335304	-0.383982	-7.20217	-0.13343
0.225	0	0	0	0	0	0	0	0	0	216.121	2420.74	26.6558	0.726134	0	-0.333801	-1.09554	-12.2711	-0.135122
0.23	0	0	0	0	0	0	0	0	0	288.55	2311.27	-2.56911	0.699888	0	-0.332449	-2.24512	-17.9832	0.0199894
0.235	0	0	0	0	0	0	0	0	0	345.942	2180.95	-43.204	0.676199	0	-0.330932	-2.4997	-15.759	0.312183
0.24	0	0	0	0	0	0	0	0	0	387.25	2029.99	-91.242	0.656763	0	-0.328492	0.342237	1.79403	-0.0806363
0.245	0	0	0	0	0	0	0	0	0	414.063	1854.09	-136.218	0.640188	0	-0.324889	6.53899	29.2803	-2.15119
0.25	0	0	0	0	0	0	0	0	0	431.34	1645.96	-161.517	0.621394	0	-0.320872	13.3099	50.7896	-4.98396
0.255	0	0	0	0	0	0	0	0	0	441.709	1399.91	-151.026	0.590323	0	-0.317981	16.7497	53.085	-5.72693
0.26	0	0	0	0	0	0	0	0	0	443.737	1118.38	-100.807	0.534005	0	-0.319723	12.8409	32.3638	-2.91717
0.265	0	0	0	0	0	0	0	0	0	431.701	818.782	-26.1405	0.441109	0	-0.335748	-2.23096	-4.23132	0.13509
0.27	0	0	0	0	0	0	0	0	0	398.049	532.056	39.3611	0.306758	0	-0.384758	-25.7563	-34.4275	-2.54691
0.275	0	0	0	0	0	0	0	0	0	339.903	296.915	62.7553	0.144874	0	-0.474351	-38.8751	-33.9585	-7.1774
0.28	0	0	0	0	0	0	0	0	0	261.231	138.346	36.8543	0.246004	0	-0.504769	-22.6883	-12.0156	-3.20086
0.285	0	0	0	0	0	0	0	0	0	174.56	47.2266	-13.6236	0.355978	0	-0.317673	0.859833	0.232624	-0.0671058
0.29	0	0	0	0	0	0	0	0	0	0	0	0	0	0	0	0	0	0
0.295	0	0	0	0	0	0	0	0	0	0	0	0	0	0	0	0	0	0
0.3	0	0	0	0	0	0	0	0	0	0	0	0	0	0	0	0	0	0
0.305	0	0	0	0	0	0	0	0	0	0	0	0	0	0	0	0	0	0
0.31	0	0	0	0	0	0	0	0	0	0	0	0	0	0	0	0	0	0
0.315	0	0	0	0	0	0	0	0	0	0	0	0	0	0	0	0	0	0
0.32	0	0	0	0	0	0	0	0	0	0	0	0	0	0	0	0	0	0
0.325	0	0	0	0	0	0	0	0	0	0	0	0	0	0	0	0	0	0
0.33	0	0	0	0	0	0	0	0	0	0	0	0	0	0	0	0	0	0
0.335	0	0	0	0	0	0	0	0	0	0	0	0	0	0	0	0	0	0
0.34	0	0	0	0	0	0	0	0	0	0	0	0	0	0	0	0	0	0
0.345	0	0	0	0	0	0	0	0	0	0	0	0	0	0	0	0	0	0
0.35	0	0	0	0	0	0	0	0	0	0	0	0	0	0	0	0	0	0
0.355	0	0	0	0	0	0	0	0	0	0	0	0	0	0	0	0	0	0
0.36	0	0	0	0	0	0	0	0	0	0	0	0	0	0	0	0	0	0
0.365	0	0	0	0	0	0	0	0	0	0	0	0	0	0	0	0	0	0
0.37	0	0	0	0	0	0	0	0	0	0	0	0	0	0	0	0	0	0
0.375	0	0	0	0	0	0	0	0	0	0	0	0	0	0	0	0	0	0
0.38	0	0	0	0	0	0	0	0	0	0	0	0	0	0	0	0	0	0
0.385	0	0	0	0	0	0	0	0	0	0	0	0	0	0	0	0	0	0
0.39	0	0	0	0	0	0	0	0	0	0	0	0	0	0	0	0	0	0
0.395	0	0	0	0	0	0	0	0	0	0	0	0	0	0	0	0	0	0
0.4	0	0	0	0	0	0	0	0	0	0	0	0	0	0	0	0	0	0
0.405	-44.8504	51.0124	1.00477	1.31296	0	-0.280535	-2.46973	2.80905	0.0553285	0	0	0	0	0	0	0	0	0
0.41	-94.5428	186.881	-21.7858	1.19783	0	-0.219278	-1.09885	2.17209	-0.253212	0	0	0	0	0	0	0	0	0
0.415	-156.168	402.112	-65.3801	1.14755	0	-0.219787	0.0759248	-0.195496	0.0317861	0	0	0	0	0	0	0	0	0
0.42	-210.488	680.966	-128.425	1.13236	0	-0.229944	1.26534	-4.09359	0.77202	0	0	0	0	0	0	0	0	0
0.425	-237.318	987.408	-199.207	1.12098	0	-0.240609	1.95627	-8.13943	1.64211	0	0	0	0	0	0	0	0	0
0.43	-239.069	1294.72	-249.867	1.10877	0	-0.251337	0.922279	-4.99476	0.963936	0	0	0	0	0	0	0	0	0
0.435	-249.13	1582.89	-248.306	1.09231	0	-0.259779	-1.55355	9.87073	-1.54841	0	0	0	0	0	0	0	0	0
0.44	-295.756	1829.39	-182.391	1.076	0	-0.264317	-4.04845	25.0416	-2.49665	0	0	0	0	0	0	0	0	0
